<svg xmlns="http://www.w3.org/2000/svg" width="218.468" height="91.156"><defs><linearGradient id="a" x1=".5" x2=".5" y2="1" gradientUnits="objectBoundingBox"><stop offset="0" stop-color="#6eb94e"/><stop offset=".481" stop-color="#add157"/><stop offset="1" stop-color="#1f9a57"/></linearGradient></defs><path d="m0 76.131 3.989-1.529a1.634 1.634 0 0 0 .673-.427 1.208 1.208 0 0 0 .285-.867V46.187a1.086 1.086 0 0 0-.285-.8 1.7 1.7 0 0 0-.673-.414L0 43.442v-2.228h18.547v2.228l-3.989 1.528a2.334 2.334 0 0 0-.725.427.994.994 0 0 0-.311.79v27.794h12.329a1.009 1.009 0 0 0 .376-.078 1.14 1.14 0 0 0 .35-.22 1.06 1.06 0 0 0 .246-.337 2 2 0 0 0 .142-.453l1.632-7.616h3.5v13.082H0Zm43.906 2.771a8.141 8.141 0 0 1-3.419-.686 7.905 7.905 0 0 1-2.539-1.8 7.935 7.935 0 0 1-1.593-2.539 8.041 8.041 0 0 1-.557-2.953 8.255 8.255 0 0 1 .6-3.212 8.484 8.484 0 0 1 1.613-2.525 10.217 10.217 0 0 1 2.357-1.878 15.923 15.923 0 0 1 2.785-1.282 18.639 18.639 0 0 1 2.94-.764 16.437 16.437 0 0 1 2.81-.259q.285 0 .907.052t1.308.117q.686.065 1.308.13l.881.091.026-2.513a11.843 11.843 0 0 0-.207-2.357 4.276 4.276 0 0 0-.686-1.671 2.894 2.894 0 0 0-1.256-.984 5 5 0 0 0-1.917-.324 6.035 6.035 0 0 0-2.409.583 21.707 21.707 0 0 0-2.642 1.4q-1.321.816-2.487 1.658t-1.918 1.305h-1.71l-.233-6.476 2.6-.829q1.3-.415 2.759-.738 1.451-.324 3.121-.531a30.137 30.137 0 0 1 3.691-.207 22.654 22.654 0 0 1 4.209.389 10.605 10.605 0 0 1 3.665 1.386 7.481 7.481 0 0 1 2.59 2.746 9.035 9.035 0 0 1 .984 4.468l-.019 13.625a2.195 2.195 0 0 0 .169.878 2.459 2.459 0 0 0 .44.686 1.8 1.8 0 0 0 .648.453 2.113 2.113 0 0 0 .816.155 7.083 7.083 0 0 0 1.192-.117q.673-.117 1.243-.272h.881v2.517a9.923 9.923 0 0 1-1.308.725q-.816.389-1.774.738a17.288 17.288 0 0 1-1.943.583 7.82 7.82 0 0 1-1.787.233 11.7 11.7 0 0 1-2.734-.285 5.57 5.57 0 0 1-1.969-.855 3.584 3.584 0 0 1-1.191-1.461 5.116 5.116 0 0 1-.4-2.111h-.34a10 10 0 0 1-2.228 2.461 10.459 10.459 0 0 1-2.487 1.438 10.213 10.213 0 0 1-2.513.661 18.492 18.492 0 0 1-2.277.151Zm4.378-4.792a7.269 7.269 0 0 0 1.321-.13 5.778 5.778 0 0 0 1.373-.44 6.417 6.417 0 0 0 1.282-.79 4.607 4.607 0 0 0 1.051-1.178v-7.07a24.189 24.189 0 0 0-3.691.259 9.227 9.227 0 0 0-2.862.881 4.678 4.678 0 0 0-1.839 1.645 4.684 4.684 0 0 0-.648 2.551 5.024 5.024 0 0 0 .376 2.072 3.682 3.682 0 0 0 .955 1.32 3.357 3.357 0 0 0 1.3.686 5.257 5.257 0 0 0 1.381.195Zm20.333 2.073 3.108-1.269a2.8 2.8 0 0 0 .751-.466 1.034 1.034 0 0 0 .285-.8v-17.41a1.111 1.111 0 0 0-.311-.842 2.555 2.555 0 0 0-.829-.505l-2.979-1.269v-2.176l11.812-1.476v4.432h.311a13.4 13.4 0 0 1 2.383-2.474 10.3 10.3 0 0 1 2.357-1.4 8.989 8.989 0 0 1 2.306-.626 18.157 18.157 0 0 1 2.254-.142 11.568 11.568 0 0 1 3.549.531 7.723 7.723 0 0 1 2.9 1.671 7.824 7.824 0 0 1 1.956 2.927 11.534 11.534 0 0 1 .712 4.274v14.352a1.234 1.234 0 0 0 .285.92 2.617 2.617 0 0 0 .751.479l2.746 1.269v2.176H87.397v-2.176l2.514-1.269a3.493 3.493 0 0 0 .764-.479 1.142 1.142 0 0 0 .324-.92V62.302a23.856 23.856 0 0 0-.181-3.121 6.33 6.33 0 0 0-.7-2.279 3.416 3.416 0 0 0-1.464-1.4 5.417 5.417 0 0 0-2.448-.479q-.673 0-1.4.065a6.248 6.248 0 0 0-1.425.3 5.463 5.463 0 0 0-1.347.673 3.9 3.9 0 0 0-1.114 1.192v16.4a.928.928 0 0 0 .3.777 6.817 6.817 0 0 0 .738.492l2.305 1.269v2.168H68.617Zm48.958 2.719a10.227 10.227 0 0 1-4.637-1.023 10.121 10.121 0 0 1-3.471-2.836 13.155 13.155 0 0 1-2.189-4.274 18 18 0 0 1-.764-5.362 19.7 19.7 0 0 1 .92-6.087 15.234 15.234 0 0 1 2.642-4.973 12.549 12.549 0 0 1 4.183-3.354 12.343 12.343 0 0 1 5.6-1.23 10.749 10.749 0 0 1 2.305.233 9.164 9.164 0 0 1 1.943.648 9.235 9.235 0 0 1 1.593.945 7.792 7.792 0 0 1 1.23 1.127l-.207-1.839v-6.864a1.245 1.245 0 0 0-.272-.868 2.1 2.1 0 0 0-.816-.505l-3.937-1.658v-2.18l13.185-.518v34.325a1.129 1.129 0 0 0 .324.855 2.286 2.286 0 0 0 .842.492l3.057 1.217v2.176l-11.76 1.528h-.13v-4.714h-.337a10.826 10.826 0 0 1-2.492 2.639 10.782 10.782 0 0 1-2.59 1.425 9.5 9.5 0 0 1-2.383.57q-1.114.105-1.839.105Zm4.17-4.922a7.553 7.553 0 0 0 1.256-.117 5.943 5.943 0 0 0 1.373-.414 7.2 7.2 0 0 0 1.321-.747 3.462 3.462 0 0 0 1.023-1.153V55.253a3.86 3.86 0 0 0-1.036-.505 11.227 11.227 0 0 0-1.334-.363 12.646 12.646 0 0 0-1.36-.207q-.673-.065-1.114-.065a5.915 5.915 0 0 0-3.044.751 6.368 6.368 0 0 0-2.119 2.038 9.251 9.251 0 0 0-1.243 3 16.111 16.111 0 0 0-.4 3.665 21.707 21.707 0 0 0 .376 4.17 10.467 10.467 0 0 0 1.179 3.29 6.114 6.114 0 0 0 2.078 2.164 5.687 5.687 0 0 0 3.044.79Zm20.438 2.2 3.86-1.373a2.226 2.226 0 0 0 .777-.453 1.078 1.078 0 0 0 .285-.816v-16.86a1.155 1.155 0 0 0-.311-.855 2.432 2.432 0 0 0-.829-.518l-3.7-1.451v-2.176l13-.855v22.718a1.111 1.111 0 0 0 .311.842 1.817 1.817 0 0 0 .725.427l3.81 1.373v2.176h-17.928Zm20.93 0 3.523-1.373a2.486 2.486 0 0 0 .738-.453 1.051 1.051 0 0 0 .3-.816V55.875h-5.183l.155-4.119h5.1a17.436 17.436 0 0 1 1.464-6.048 13.961 13.961 0 0 1 3.057-4.352 12.313 12.313 0 0 1 4.248-2.629 14.487 14.487 0 0 1 5.038-.881q.518 0 1.282.052t1.567.142q.8.091 1.58.207a11.886 11.886 0 0 1 1.347.272l-.259 6.5h-1.684q-.648-.285-1.606-.609t-1.982-.609q-1.023-.285-1.969-.466a8.623 8.623 0 0 0-1.567-.181 2.529 2.529 0 0 0-1.1.207 1.522 1.522 0 0 0-.686.725 9.48 9.48 0 0 0-.505 2.72q-.168 1.969-.194 4.948h7.9l-.181 4.119h-7.665v17.668a1.138 1.138 0 0 0 .3.842 1.7 1.7 0 0 0 .738.427l4.119 1.373v2.176h-17.877Zm29.815 14.972q-.44 0-1.256-.078t-1.71-.207q-.894-.13-1.684-.285a6.228 6.228 0 0 1-1.153-.311l.311-6.657h1.787a7.245 7.245 0 0 0 .984.3q.6.142 1.282.3t1.412.272l1.36.22q.635.1 1.1.155t.673.052q.181 0 .44-.013t.518-.052a4.189 4.189 0 0 0 .453-.091 1.264 1.264 0 0 0 .324-.13 5.561 5.561 0 0 0 .725-.764 9.268 9.268 0 0 0 .712-1.075q.376-.648.8-1.593t.971-2.318l-3.031-4.3-8.775-19.738a1.852 1.852 0 0 0-.557-.764 3.907 3.907 0 0 0-.816-.479l-2.228-.958v-2.15h15.62v2.15l-3.782 1.3 5.569 12.615 1.217 3.393h.44l5.958-15.231-3.652-2.072v-2.15h11.527v2.15l-2.256 1.6a7.121 7.121 0 0 0-.816.557 1.846 1.846 0 0 0-.557.712l-10.876 27.38a17.475 17.475 0 0 1-2.344 4.274 10.483 10.483 0 0 1-2.72 2.513 8.933 8.933 0 0 1-2.953 1.179 15.613 15.613 0 0 1-3.018.297Z" fill="#fff"/><path d="M11.289 43.853c-3.233-.23-4.923-1.4-5.791-2.689a35.853 35.853 0 0 1 2-10.629 15.04 15.04 0 0 1 3.234-5.235 29.964 29.964 0 0 1 4.221-3.886 24.679 24.679 0 0 1 5.854-3.2c.763-.294 2.131-.848 3.786-1.464a30.622 30.622 0 0 0 5.354-2.382 60.168 60.168 0 0 0 6.392-4.068 63.393 63.393 0 0 1-6.695 3.144 32.286 32.286 0 0 1-5.406 1.685 39.791 39.791 0 0 0-3.938 1.189c-1.483.619-10.368 3.462-14.907 12.993A34.16 34.16 0 0 0 3.3 36.623a5.2 5.2 0 0 1-2.646-3.774c-.606-3.613-.269-14.457 9.557-20.481S31.01 7.549 36.26 5.783A13.371 13.371 0 0 0 43.6 0s-4.378 40.881-32.311 43.853Z" transform="translate(143.968)" fill="url(#a)"/></svg>